<svg width="29" height="32" viewBox="0 0 29 32" fill="none" xmlns="http://www.w3.org/2000/svg">
<g clip-path="url(#clip0_413_717)">
<path d="M10.0624 25.7032C10.6611 26.0185 11.4042 25.7903 11.7201 25.1928C12.036 24.5952 11.8073 23.855 11.2086 23.5383C10.7168 23.2785 10.1316 23.3911 9.76155 23.7695L10.7604 24.3865C10.8897 24.4541 10.9394 24.6147 10.8702 24.7453C10.801 24.876 10.64 24.924 10.5107 24.8564L9.43814 24.3805C9.33434 24.897 9.57051 25.4435 10.0624 25.7032Z" fill="#2AAA94"/>
<path d="M10.7825 24.6988C10.8246 24.6178 10.7945 24.5187 10.7133 24.4766C10.6321 24.4331 10.5328 24.4646 10.4907 24.5457C10.4485 24.6268 10.4786 24.7259 10.5599 24.7679C10.6396 24.8099 10.7389 24.7784 10.7825 24.6988Z" fill="#2AAA94"/>
<path d="M13.0479 16.7117H0.713016C0.320406 16.7117 0 17.033 0 17.4248V23.6299C0 24.0218 0.278287 24.5022 0.618248 24.6989L9.70545 29.9357L13.1457 31.9174C13.4856 32.1141 13.7639 31.9535 13.7639 31.5616V24.0593V17.4278C13.7624 17.033 13.442 16.7117 13.0479 16.7117ZM12.4928 24.765L12.2958 24.8115C12.2822 24.9316 12.2552 25.0517 12.2145 25.1688L12.371 25.2965C12.4011 25.322 12.4116 25.37 12.392 25.4045L12.2717 25.6313C12.2537 25.6658 12.2085 25.6853 12.1709 25.6733L11.9769 25.6162C11.9032 25.7153 11.8189 25.8054 11.7272 25.885L11.7994 26.0742C11.8129 26.1102 11.7979 26.1567 11.7648 26.1777L11.5482 26.3129C11.5151 26.3339 11.4669 26.3279 11.4399 26.2994L11.3 26.1522C11.1871 26.2003 11.0698 26.2378 10.9495 26.2603L10.9164 26.46C10.9104 26.499 10.8743 26.5321 10.8336 26.5336L10.5779 26.5426C10.5388 26.5441 10.4997 26.5141 10.4907 26.475L10.4425 26.2798C10.3222 26.2663 10.2019 26.2393 10.0845 26.1988L9.95666 26.3549C9.93259 26.3849 9.88295 26.3954 9.84835 26.3774L9.62121 26.2573C9.58661 26.2393 9.56856 26.1928 9.57909 26.1567L9.63625 25.9631C9.53697 25.8895 9.44672 25.8054 9.36699 25.7138L9.17745 25.7859C9.14135 25.8009 9.09322 25.7844 9.07366 25.7514L8.93828 25.5352C8.91722 25.5021 8.92324 25.4526 8.95182 25.4271L9.09773 25.2889C9.04959 25.1763 9.01349 25.0592 8.98942 24.9391L8.78936 24.9076C8.75025 24.9016 8.71715 24.8641 8.71715 24.825L8.70662 24.5698C8.70512 24.5308 8.7352 24.4917 8.77281 24.4827L8.96987 24.4362C8.97889 24.3566 8.99544 24.2785 9.0165 24.2005L7.73036 23.6299C7.59197 23.8161 7.43553 23.9828 7.26404 24.1299L7.39792 24.4812C7.42349 24.5503 7.39491 24.6374 7.33324 24.6749L6.9286 24.9286C6.86692 24.9677 6.77516 24.9556 6.72552 24.9031L6.46528 24.6283C6.25619 24.7184 6.03657 24.786 5.81244 24.8295L5.75227 25.2019C5.74023 25.2739 5.67104 25.3355 5.59883 25.337L5.12199 25.355C5.04828 25.358 4.97457 25.301 4.95802 25.2304L4.87078 24.8641C4.64664 24.8385 4.42251 24.789 4.20289 24.7124L3.96521 25.0052C3.91858 25.0607 3.82833 25.0803 3.76364 25.0457L3.34095 24.8235C3.27627 24.789 3.24016 24.7049 3.26122 24.6344L3.36803 24.2725C3.1815 24.1344 3.01453 23.9783 2.8656 23.8071L2.51361 23.9407C2.44592 23.9662 2.35717 23.9377 2.31956 23.8762L2.06534 23.4723C2.02623 23.4107 2.03826 23.3192 2.09091 23.2696L2.36619 23.0099C2.27594 22.7997 2.20825 22.582 2.16462 22.3568L1.79157 22.2967C1.71936 22.2847 1.65769 22.2157 1.65618 22.1436L1.63813 21.6677C1.63512 21.5941 1.69078 21.5205 1.76148 21.504L2.12852 21.4169C2.15409 21.1932 2.20373 20.9695 2.28045 20.7503L1.98862 20.5131C1.93146 20.4666 1.91341 20.3765 1.94801 20.3134L2.17064 19.8916C2.20373 19.827 2.28947 19.791 2.36017 19.812L2.7212 19.9186C2.85959 19.7324 3.01603 19.5658 3.18751 19.4171L3.05364 19.0643C3.02806 18.9967 3.05664 18.9082 3.11832 18.8706L3.52296 18.6169C3.58464 18.5794 3.6764 18.5899 3.72604 18.6424L3.98627 18.9157C4.19536 18.8256 4.41499 18.758 4.64062 18.7145L4.70079 18.3421C4.71283 18.2701 4.78202 18.21 4.85423 18.207L5.33108 18.189C5.40479 18.186 5.47699 18.2416 5.49354 18.3136L5.58229 18.68C5.80642 18.7055 6.03055 18.755 6.25018 18.8316L6.48785 18.5403C6.53448 18.4848 6.62474 18.4653 6.68942 18.4998L7.11211 18.722C7.1768 18.7565 7.2129 18.8406 7.19184 18.9112L7.08353 19.2715C7.27006 19.4096 7.43703 19.5658 7.58595 19.7369L7.93795 19.6033C7.98007 19.5868 8.0267 19.5973 8.06732 19.6183C8.09289 19.6318 8.11696 19.6438 8.132 19.6678L8.38622 20.0717C8.42533 20.1333 8.41329 20.2249 8.36065 20.2744L8.08537 20.5341C8.17713 20.7443 8.24482 20.962 8.28694 21.1857L8.65999 21.2458C8.7322 21.2578 8.79237 21.3269 8.79537 21.3989L8.81343 21.8748C8.81643 21.9469 8.76078 22.022 8.68857 22.0385L8.32153 22.1256C8.29596 22.3493 8.24632 22.5715 8.1696 22.7907L9.37301 23.5339C9.42566 23.4738 9.4768 23.4107 9.53547 23.3597L9.46326 23.1705C9.44972 23.1345 9.46477 23.0879 9.49786 23.0669L9.71447 22.9303C9.74757 22.9093 9.79721 22.9153 9.82428 22.9438L9.96418 23.0894C10.077 23.0414 10.1943 23.0054 10.3147 22.9829L10.3478 22.7832C10.3538 22.7441 10.3914 22.7126 10.429 22.7096L10.6847 22.7006C10.7238 22.6991 10.7629 22.7291 10.772 22.7667L10.8186 22.9618C10.9389 22.9753 11.0593 23.0024 11.1766 23.0429L11.3045 22.8868C11.33 22.8567 11.3782 22.8462 11.4128 22.8657L11.6384 22.9844C11.673 23.0024 11.6926 23.0489 11.6805 23.0849L11.6234 23.2786C11.7227 23.3522 11.8129 23.4363 11.8911 23.5278L12.0807 23.4558C12.1168 23.4423 12.1649 23.4573 12.1845 23.4903L12.3198 23.7065C12.3409 23.7395 12.3349 23.7891 12.3063 23.8161L12.1589 23.9542C12.2085 24.0668 12.2446 24.1839 12.2672 24.3041L12.4673 24.3356C12.5049 24.3416 12.538 24.3791 12.5395 24.4182L12.55 24.6734C12.5605 24.7154 12.5304 24.756 12.4928 24.765Z" fill="#2AAA94"/>
<path d="M13.1442 0.0842772L0.618248 7.30132C0.278287 7.498 0 7.97843 0 8.37029V14.5754C0 14.9673 0.32191 15.2871 0.713016 15.2871H5.0904H13.0494C13.442 15.2871 13.7639 14.9658 13.7639 14.5754V13.4269V0.4401C13.7624 0.0482446 13.4841 -0.112401 13.1442 0.0842772ZM9.5099 13.7692H4.33526C3.6433 13.7692 3.01603 13.4959 2.55121 13.0545H5.30099C5.39576 13.1791 5.53866 13.2632 5.70112 13.2827C5.72519 13.2857 5.74926 13.2917 5.77333 13.2917C5.835 13.2917 5.89216 13.2797 5.94782 13.2632C6.19001 13.1882 6.36751 12.966 6.36751 12.6987C6.36751 12.3714 6.10126 12.1057 5.77333 12.1057C5.57928 12.1057 5.4093 12.2003 5.29949 12.3429H2.02322C1.84873 11.9946 1.74644 11.6027 1.74644 11.1868C1.74644 10.8385 1.81714 10.5082 1.94199 10.2049H5.29949C5.40779 10.3491 5.57928 10.4422 5.77333 10.4422C6.10276 10.4422 6.36751 10.1764 6.36751 9.84913C6.36751 9.52183 6.10126 9.25609 5.77333 9.25609C5.57928 9.25609 5.4093 9.35068 5.29949 9.4933H2.38424C2.74827 9.07593 3.24317 8.77565 3.80576 8.65855C4.38941 7.53553 5.56574 6.76683 6.92107 6.76683C8.02369 6.76683 9.00747 7.2758 9.64979 8.06851H7.01885C6.91054 7.92438 6.73906 7.8313 6.54651 7.8313C6.21859 7.8313 5.95233 8.09704 5.95233 8.42434C5.95233 8.75163 6.21859 9.01737 6.54651 9.01737C6.74056 9.01737 6.91054 8.92279 7.01885 8.78016H10.447C11.3315 9.12397 11.9784 9.93921 12.0807 10.9166H7.01885C6.91054 10.774 6.73906 10.6794 6.54651 10.6794C6.21859 10.6794 5.95233 10.9451 5.95233 11.2739C5.95233 11.6012 6.21859 11.867 6.54651 11.867C6.74056 11.867 6.91054 11.7724 7.01885 11.6297H12.0551C11.8445 12.8458 10.787 13.7692 9.5099 13.7692Z" fill="#04016C"/>
<path d="M28.3361 7.30107L15.8087 0.0840331C15.4687 -0.112645 15.1904 0.0480004 15.1904 0.439856V14.5752C15.1904 14.967 15.5108 15.2868 15.905 15.2868H22.2439H28.2398C28.6324 15.2868 28.9544 14.9655 28.9544 14.5752V14.4115V8.37004C28.9529 7.97819 28.6746 7.49775 28.3361 7.30107ZM24.216 8.06076L25.3983 7.37915C25.4585 7.34461 25.5352 7.36413 25.5698 7.42569C25.6044 7.48574 25.5848 7.56231 25.5247 7.59834L24.3423 8.27996C24.3228 8.29047 24.3017 8.29648 24.2791 8.29648C24.237 8.29648 24.1934 8.27396 24.1708 8.23342C24.1347 8.17186 24.1558 8.09529 24.216 8.06076ZM23.0231 6.96327L23.706 5.7832C23.7406 5.72314 23.8173 5.70212 23.8775 5.73666C23.9377 5.77119 23.9587 5.84776 23.9241 5.90781L23.2412 7.08788C23.2186 7.12842 23.175 7.15094 23.1329 7.15094C23.1118 7.15094 23.0908 7.14493 23.0697 7.13442C23.0095 7.09989 22.9885 7.02332 23.0231 6.96327ZM21.4406 5.24421C21.4406 5.17515 21.4978 5.1181 21.567 5.1181C21.6377 5.1181 21.6933 5.17515 21.6933 5.24421V6.60594C21.6933 6.67501 21.6377 6.73206 21.567 6.73206C21.4978 6.73206 21.4406 6.67501 21.4406 6.60594V5.24421ZM19.2549 5.73666C19.3151 5.70212 19.3918 5.72164 19.4264 5.7832L20.1093 6.96327C20.1439 7.02332 20.1229 7.09989 20.0627 7.13442C20.0432 7.14643 20.0206 7.15094 19.9995 7.15094C19.9559 7.15094 19.9138 7.12842 19.8897 7.08788L19.2068 5.90781C19.1752 5.84926 19.1963 5.77119 19.2549 5.73666ZM17.6108 7.59684C17.5506 7.56231 17.5295 7.48424 17.5641 7.42419C17.5987 7.36413 17.6755 7.34461 17.7356 7.37764L18.918 8.05926C18.9781 8.09379 18.9992 8.17036 18.9646 8.23042C18.942 8.27095 18.8999 8.29347 18.8548 8.29347C18.8337 8.29347 18.8127 8.28897 18.7916 8.27696L17.6108 7.59684ZM21.6151 14.7013C21.6031 14.7013 21.5925 14.7028 21.5805 14.7028C21.1533 14.7028 20.6659 14.5016 20.6659 14.1998H21.0766H22.4936C22.4951 14.4941 22.0333 14.6908 21.6151 14.7013ZM22.8245 13.871C22.8245 13.9536 22.7523 14.0227 22.6606 14.0227H20.887H20.4719C20.3816 14.0227 20.3079 13.9551 20.3079 13.871V13.7704C20.3079 13.6924 20.3741 13.6278 20.4583 13.6218C20.4628 13.6218 20.4674 13.6188 20.4719 13.6188H22.6606C22.7523 13.6188 22.8245 13.6864 22.8245 13.7704V13.871ZM23.9241 11.095C23.2562 12.2961 23.0787 12.0544 22.9704 12.7075C22.9449 12.8546 22.9193 12.9717 22.8832 13.0633C22.9343 13.0903 22.9689 13.1369 22.9689 13.1909V13.2915C22.9689 13.3756 22.8877 13.4431 22.7854 13.4431H20.347C20.2974 13.4431 20.2522 13.4266 20.2207 13.3996C20.2176 13.3981 20.2176 13.3966 20.2161 13.3951L20.2056 13.3846V13.3831C20.1815 13.3576 20.165 13.326 20.165 13.2915V13.1909C20.165 13.1369 20.1996 13.0903 20.2507 13.0633C20.2161 12.9717 20.1891 12.8561 20.1635 12.7075C20.0537 12.0544 19.8777 12.2961 19.2098 11.095C18.9857 10.6911 18.8473 10.2332 18.8473 9.73928C18.8473 8.23942 20.0657 7.02482 21.567 7.02482C22.7298 7.02482 23.7211 7.75448 24.1092 8.77991C24.222 9.07869 24.2882 9.40148 24.2882 9.73928C24.2867 10.2332 24.1483 10.6926 23.9241 11.095Z" fill="#2AAA94"/>
<path opacity="0.2" d="M12.0562 11.6311C11.8456 12.8457 10.7866 13.7706 9.50946 13.7706H4.33483C3.64287 13.7706 3.0156 13.4973 2.55078 13.0559L5.08996 15.2885H13.049C13.4416 15.2885 13.7635 14.9672 13.7635 14.5768V13.4283L12.0577 11.6296L12.0562 11.6311Z" fill="#2AAA94"/>
<path d="M16.2959 21.0552L16.2971 21.0575C16.2971 21.0563 16.2959 21.0563 16.2959 21.0552Z" fill="#2AAA94"/>
<path opacity="0.2" d="M16.2959 21.0552L16.2971 21.0575C16.2971 21.0563 16.2959 21.0563 16.2959 21.0552Z" fill="#2AAA94"/>
<path d="M28.2398 16.7117H15.905C15.5123 16.7117 15.1904 17.033 15.1904 17.4248V31.5601C15.1904 31.952 15.4687 32.1126 15.8087 31.916L19.1917 29.9657L20.7562 29.0649L23.694 27.3728L28.3361 24.6989C28.3857 24.6704 28.4339 24.6344 28.4805 24.5938C28.7513 24.3611 28.9529 23.9647 28.9529 23.6299V22.6075V17.4248C28.9529 17.033 28.6324 16.7117 28.2398 16.7117ZM24.7485 24.3461C24.7485 24.9061 23.3465 25.358 21.6151 25.358C19.8852 25.358 18.4817 24.9046 18.4817 24.3461V22.1856L21.2766 22.8808C21.388 22.9078 21.5008 22.9228 21.6151 22.9228C21.7294 22.9228 21.8422 22.9093 21.9536 22.8808L24.7485 22.1856V24.3461ZM26.7266 21.2773L26.3009 21.3824V24.1074C26.4061 24.2215 26.4723 24.3881 26.4723 24.5743C26.4723 24.9166 26.2467 25.1959 25.9699 25.1959C25.6931 25.1959 25.4675 24.9181 25.4675 24.5743C25.4675 24.3881 25.5337 24.22 25.639 24.1074V21.5476L24.7485 21.7683L21.8889 22.4799C21.7986 22.5024 21.7084 22.5144 21.6151 22.5144C21.5233 22.5144 21.4316 22.5024 21.3428 22.4799L18.4817 21.7683L16.5036 21.2773C16.448 21.2638 16.4074 21.2308 16.3713 21.1917C16.3382 21.1542 16.3126 21.1092 16.2976 21.0581L16.2961 21.0551C16.2479 20.8764 16.3171 20.6527 16.5021 20.6062L21.3413 19.4006C21.4316 19.3766 21.5233 19.3661 21.6136 19.3661C21.7054 19.3661 21.7971 19.3781 21.8874 19.4006L26.7266 20.6062C26.8213 20.6302 26.8815 20.7008 26.9161 20.7864C26.9883 20.971 26.9266 21.2263 26.7266 21.2773Z" fill="#04016C"/>
<path opacity="0.2" d="M26.9159 20.7878C26.9881 20.971 26.9279 21.2262 26.7264 21.2773L26.3007 21.3824V24.1074C26.406 24.2215 26.4722 24.3881 26.4722 24.5743C26.4722 24.9166 26.2465 25.1958 25.9697 25.1958C25.693 25.1958 25.4673 24.9181 25.4673 24.5743C25.4673 24.3881 25.5335 24.22 25.6388 24.1074V21.5475L24.7483 21.7682L21.8887 22.4799C21.7984 22.5024 21.7082 22.5144 21.6149 22.5144C21.5232 22.5144 21.4314 22.5024 21.3427 22.4799L18.4816 21.7682L16.5035 21.2773C16.4478 21.2638 16.4072 21.2307 16.3711 21.1917L20.756 29.0648L23.6938 27.3728L28.3359 24.6989C28.3856 24.6704 28.4337 24.6343 28.4803 24.5938L26.9189 20.7893H26.9159V20.7878ZM24.7483 24.3461C24.7483 24.9061 23.3463 25.358 21.6149 25.358C19.885 25.358 18.4816 24.9046 18.4816 24.3461V22.1856L21.2765 22.8807C21.3878 22.9078 21.5006 22.9228 21.6149 22.9228C21.7292 22.9228 21.8421 22.9093 21.9534 22.8807L24.7483 22.1856V24.3461Z" fill="#2AAA94"/>
<path d="M4.97004 21.6314C4.89332 21.7755 4.94898 21.9542 5.09339 22.0308C5.2378 22.1073 5.4168 22.0518 5.49352 21.9077C5.57024 21.7635 5.51458 21.5849 5.37017 21.5083C5.22576 21.4317 5.04676 21.4873 4.97004 21.6314Z" fill="#2AAA94"/>
<path d="M6.95001 23.2756L4.91325 22.3717C4.57931 22.1961 4.45295 21.7832 4.62895 21.4514C4.80495 21.1196 5.21711 20.992 5.55106 21.1677L7.44642 22.3387C7.70665 21.3373 7.25838 20.2533 6.30168 19.7504C5.18402 19.1603 3.7986 19.5867 3.20743 20.7022C2.61626 21.8177 3.04346 23.2005 4.16113 23.7905C5.11783 24.2935 6.26708 24.0533 6.95001 23.2756Z" fill="#2AAA94"/>
<path opacity="0.2" d="M8.07344 19.6152C8.09901 19.6287 8.12308 19.6407 8.13812 19.6647L8.39234 20.0686C8.43145 20.1301 8.41942 20.2217 8.36677 20.2713L8.09149 20.531C8.18325 20.7412 8.25094 20.9589 8.29306 21.1826L8.66611 21.2426C8.73832 21.2547 8.79849 21.3237 8.8015 21.3958L8.81955 21.8717C8.82256 21.9438 8.7669 22.0189 8.6947 22.0354L8.32766 22.1224C8.30209 22.3461 8.25244 22.5683 8.17573 22.7875L9.37913 23.5307C9.43178 23.4707 9.48292 23.4076 9.54159 23.3566L9.46939 23.1674C9.45585 23.1314 9.47089 23.0848 9.50398 23.0638L9.7206 22.9272C9.75369 22.9062 9.80333 22.9122 9.83041 22.9407L9.9703 23.0863C10.0831 23.0383 10.2005 23.0022 10.3208 22.9797L10.3539 22.78C10.3599 22.741 10.3975 22.7095 10.4351 22.7065L10.6908 22.6975C10.73 22.696 10.7691 22.726 10.7781 22.7635L10.8247 22.9587C10.9451 22.9722 11.0654 22.9992 11.1827 23.0398L11.3106 22.8836C11.3362 22.8536 11.3843 22.8431 11.4189 22.8626L11.6445 22.9812C11.6791 22.9992 11.6987 23.0458 11.6867 23.0818L11.6295 23.2755C11.7288 23.3491 11.819 23.4331 11.8973 23.5247L12.0868 23.4527C12.1229 23.4391 12.171 23.4542 12.1906 23.4872L12.326 23.7034C12.347 23.7364 12.341 23.786 12.3124 23.813L12.165 23.9511C12.2147 24.0637 12.2508 24.1808 12.2733 24.3009L12.4734 24.3324C12.511 24.3385 12.5441 24.376 12.5456 24.415L12.5561 24.6703C12.5576 24.7093 12.5275 24.7483 12.4899 24.7573L12.2929 24.8039C12.2793 24.924 12.2523 25.0441 12.2116 25.1612L12.3681 25.2888C12.3982 25.3143 12.4087 25.3624 12.3891 25.3969L12.2688 25.6236C12.2508 25.6581 12.2056 25.6777 12.168 25.6657L11.974 25.6086C11.9003 25.7077 11.816 25.7978 11.7243 25.8773L11.7965 26.0665C11.81 26.1026 11.795 26.1491 11.7619 26.1701L11.5453 26.3052C11.5122 26.3263 11.464 26.3202 11.437 26.2917L11.2971 26.1446C11.1842 26.1926 11.0669 26.2302 10.9466 26.2527L10.9135 26.4524C10.9075 26.4914 10.8714 26.5244 10.8307 26.5259L10.575 26.5349C10.5359 26.5364 10.4968 26.5064 10.4878 26.4674L10.4396 26.2722C10.3193 26.2587 10.1989 26.2317 10.0816 26.1911L9.95376 26.3473C9.92969 26.3773 9.88005 26.3878 9.84545 26.3698L9.61831 26.2497C9.58371 26.2317 9.56566 26.1851 9.57619 26.1491L9.63335 25.9554C9.53407 25.8819 9.44381 25.7978 9.36409 25.7062L9.17455 25.7783C9.13845 25.7933 9.09031 25.7768 9.07076 25.7437L8.93538 25.5275C8.91432 25.4945 8.92033 25.445 8.94891 25.4194L9.09483 25.2813C9.04669 25.1687 9.01059 25.0516 8.98652 24.9315L8.78645 24.9C8.74734 24.894 8.71425 24.8564 8.71425 24.8174L8.70372 24.5622C8.70222 24.5231 8.7323 24.4841 8.76991 24.4751L8.96697 24.4285C8.97599 24.349 8.99254 24.2709 9.0136 24.1928L7.72746 23.6223C7.58907 23.8085 7.43263 23.9751 7.26114 24.1223L7.39502 24.4736C7.42059 24.5426 7.39201 24.6297 7.33034 24.6673L6.92569 24.921C6.86402 24.96 6.77226 24.948 6.72262 24.8955L6.46238 24.6207C6.25329 24.7108 6.03367 24.7784 5.80954 24.8219L5.74937 25.1942C5.73733 25.2663 5.66814 25.3279 5.59593 25.3294L5.11908 25.3474C5.04537 25.3504 4.97167 25.2933 4.95512 25.2228L4.86787 24.8564C4.64374 24.8309 4.41961 24.7814 4.19998 24.7048L3.96231 24.9975C3.91568 25.0531 3.82543 25.0726 3.76074 25.0381L9.69653 29.9295L13.1368 31.9113C13.4767 32.108 13.755 31.9473 13.755 31.5555V24.0532L8.06742 19.6077L8.07344 19.6152Z" fill="#2AAA94"/>
<path opacity="0.2" d="M24.1067 8.78003C24.2195 9.0788 24.2857 9.40159 24.2857 9.7394C24.2857 10.2333 24.1458 10.6928 23.9232 11.0951C23.2553 12.2962 23.0778 12.0545 22.9695 12.7076C22.9439 12.8547 22.9184 12.9718 22.8823 13.0634C22.9334 13.0904 22.968 13.137 22.968 13.191V13.2916C22.968 13.3757 22.8868 13.4433 22.7845 13.4433H20.3461C20.2964 13.4433 20.2513 13.4267 20.2197 13.3997L20.4574 13.6219C20.4619 13.6219 20.4664 13.6189 20.4709 13.6189H22.6596C22.7514 13.6189 22.8236 13.6865 22.8236 13.7706V13.8711C22.8236 13.9537 22.7514 14.0228 22.6596 14.0228H20.8861L21.0756 14.1999H22.4927C22.4927 14.4942 22.0308 14.6909 21.6127 14.7014L22.2414 15.2869H28.2374C28.63 15.2869 28.9519 14.9656 28.9519 14.5753V14.4116L24.1067 8.78003Z" fill="#2AAA94"/>
</g>
<defs>
<clipPath id="clip0_413_717">
<rect width="28.9524" height="32" fill="white"/>
</clipPath>
</defs>
</svg>
