<svg width="143" height="50" viewBox="0 0 143 50" fill="none" xmlns="http://www.w3.org/2000/svg">
<rect width="142.03" height="49.66" rx="10" fill="url(#paint0_linear_76_14096)"/>
<g clip-path="url(#clip0_76_14096)">
<path d="M46.4276 30.2033L44.0943 27.8033C44.9831 26.7366 45.5387 25.5366 45.7609 24.2033C45.9831 22.8699 45.872 21.5588 45.4276 20.2699C44.9831 18.981 44.2498 17.8699 43.2276 16.9366C42.2054 16.0033 41.0276 15.3922 39.6943 15.1033C38.3609 14.8144 37.0387 14.8477 35.7276 15.2033C34.4165 15.5588 33.272 16.2255 32.2943 17.2033C31.3165 18.181 30.6498 19.3255 30.2943 20.6366C29.9387 21.9477 29.9054 23.2699 30.1943 24.6033C30.4831 25.9366 31.0943 27.1144 32.0276 28.1366C32.9609 29.1588 34.072 29.8922 35.3609 30.3366C36.6498 30.781 37.9609 30.8922 39.2943 30.6699C40.6276 30.4477 41.8276 29.8922 42.8943 29.0033L45.2943 31.3366C45.4276 31.5144 45.6165 31.6033 45.8609 31.6033C46.1054 31.6033 46.3054 31.5255 46.4609 31.3699C46.6165 31.2144 46.6943 31.0144 46.6943 30.7699C46.6943 30.5255 46.6054 30.3366 46.4276 30.2033ZM31.6943 22.8699C31.6943 21.7144 31.972 20.6588 32.5276 19.7033C33.0831 18.7477 33.8387 17.9922 34.7943 17.4366C35.7498 16.881 36.7943 16.6033 37.9276 16.6033C39.0609 16.6033 40.1054 16.881 41.0609 17.4366C42.0165 17.9922 42.7831 18.7477 43.3609 19.7033C43.9387 20.6588 44.2276 21.7033 44.2276 22.8366C44.2276 23.9699 43.9387 25.0144 43.3609 25.9699C42.7831 26.9255 42.0165 27.681 41.0609 28.2366C40.1054 28.7922 39.0609 29.0699 37.9276 29.0699C36.7943 29.0699 35.7498 28.7922 34.7943 28.2366C33.8387 27.681 33.0831 26.9255 32.5276 25.9699C31.972 25.0144 31.6943 23.981 31.6943 22.8699Z" fill="white"/>
</g>
<path d="M69.2659 21.8168C69.2091 21.3125 68.9747 20.9219 68.5628 20.6449C68.1508 20.3644 67.6324 20.2241 67.0074 20.2241C66.5599 20.2241 66.1728 20.2951 65.8461 20.4372C65.5194 20.5757 65.2655 20.7674 65.0844 21.0125C64.9069 21.2539 64.8181 21.5291 64.8181 21.8381C64.8181 22.0973 64.8784 22.321 64.9992 22.5093C65.1235 22.6975 65.2851 22.8555 65.4839 22.9833C65.6863 23.1076 65.903 23.2124 66.1338 23.2976C66.3646 23.3793 66.5865 23.4468 66.7996 23.5L67.865 23.777C68.213 23.8622 68.5699 23.9776 68.9356 24.1232C69.3014 24.2688 69.6405 24.4606 69.953 24.6985C70.2655 24.9365 70.5177 25.2312 70.7094 25.5828C70.9047 25.9343 71.0024 26.3551 71.0024 26.8452C71.0024 27.4631 70.8426 28.0117 70.523 28.4911C70.2069 28.9705 69.7471 29.3487 69.1434 29.6257C68.5432 29.9027 67.817 30.0412 66.9647 30.0412C66.148 30.0412 65.4413 29.9116 64.8447 29.6524C64.2481 29.3931 63.7811 29.0256 63.4438 28.5497C63.1064 28.0703 62.92 27.5022 62.8845 26.8452H64.5358C64.5677 27.2394 64.6956 27.5678 64.9193 27.8306C65.1466 28.0899 65.436 28.2834 65.7875 28.4112C66.1427 28.5355 66.5315 28.5977 66.9541 28.5977C67.4193 28.5977 67.833 28.5249 68.1952 28.3793C68.561 28.2301 68.8486 28.0242 69.0581 27.7614C69.2677 27.4951 69.3724 27.1843 69.3724 26.8292C69.3724 26.5061 69.2801 26.2415 69.0954 26.0355C68.9143 25.8296 68.6675 25.6591 68.355 25.5242C68.0461 25.3892 67.6963 25.2703 67.3057 25.1673L66.0166 24.8157C65.143 24.5778 64.4505 24.228 63.9392 23.7664C63.4314 23.3047 63.1775 22.6939 63.1775 21.934C63.1775 21.3054 63.3479 20.7568 63.6888 20.288C64.0297 19.8193 64.4914 19.4553 65.0738 19.196C65.6561 18.9333 66.3131 18.8019 67.0446 18.8019C67.7833 18.8019 68.4349 18.9315 68.9995 19.1907C69.5677 19.45 70.0152 19.8068 70.3419 20.2614C70.6686 20.7124 70.839 21.2308 70.8532 21.8168H69.2659ZM76.3677 30.0252C75.5616 30.0252 74.8674 29.853 74.285 29.5085C73.7061 29.1605 73.2587 28.6723 72.9426 28.0437C72.6301 27.4116 72.4739 26.6712 72.4739 25.8225C72.4739 24.9844 72.6301 24.2458 72.9426 23.6066C73.2587 22.9674 73.699 22.4684 74.2637 22.1098C74.8318 21.7511 75.4959 21.5718 76.2558 21.5718C76.7175 21.5718 77.1649 21.6481 77.5982 21.8008C78.0314 21.9535 78.4203 22.1932 78.7647 22.5199C79.1092 22.8466 79.3808 23.271 79.5797 23.793C79.7786 24.3115 79.878 24.9418 79.878 25.684V26.2486H73.3741V25.0554H78.3173C78.3173 24.6364 78.2321 24.2653 78.0616 23.9421C77.8911 23.6154 77.6514 23.358 77.3425 23.1698C77.0371 22.9816 76.6784 22.8875 76.2665 22.8875C75.8191 22.8875 75.4284 22.9975 75.0946 23.2177C74.7644 23.4343 74.5087 23.7184 74.3276 24.07C74.15 24.418 74.0612 24.7962 74.0612 25.2046V26.1367C74.0612 26.6836 74.1571 27.1488 74.3489 27.5323C74.5442 27.9159 74.8159 28.2088 75.1639 28.4112C75.5119 28.6101 75.9185 28.7095 76.3837 28.7095C76.6855 28.7095 76.9607 28.6669 77.2093 28.5817C77.4579 28.4929 77.6728 28.3615 77.8539 28.1875C78.035 28.0135 78.1735 27.7987 78.2693 27.543L79.7768 27.8147C79.6561 28.2585 79.4394 28.6474 79.1269 28.9812C78.818 29.3115 78.4291 29.5689 77.9604 29.7536C77.4952 29.9347 76.9643 30.0252 76.3677 30.0252ZM84.0262 30.0412C83.5077 30.0412 83.039 29.9453 82.6199 29.7536C82.2009 29.5583 81.8689 29.2759 81.6238 28.9066C81.3824 28.5373 81.2616 28.0845 81.2616 27.5483C81.2616 27.0867 81.3504 26.7067 81.528 26.4084C81.7055 26.1101 81.9452 25.874 82.2471 25.7C82.5489 25.5259 82.8863 25.3946 83.2591 25.3058C83.632 25.217 84.012 25.1495 84.399 25.1034C84.8891 25.0465 85.2868 25.0004 85.5922 24.9649C85.8976 24.9258 86.1196 24.8637 86.2581 24.7784C86.3966 24.6932 86.4658 24.5547 86.4658 24.3629V24.3257C86.4658 23.8605 86.3344 23.5 86.0716 23.2443C85.8124 22.9887 85.4253 22.8608 84.9104 22.8608C84.3742 22.8608 83.9516 22.9798 83.6427 23.2177C83.3373 23.4521 83.126 23.7131 83.0088 24.0007L81.512 23.6598C81.6895 23.1627 81.9488 22.7614 82.2897 22.456C82.6341 22.147 83.0301 21.9233 83.4775 21.7848C83.925 21.6428 84.3955 21.5718 84.8891 21.5718C85.2158 21.5718 85.562 21.6108 85.9278 21.6889C86.2971 21.7635 86.6416 21.902 86.9612 22.1044C87.2843 22.3068 87.5489 22.5963 87.7549 22.9727C87.9608 23.3455 88.0638 23.8303 88.0638 24.4269V29.8601H86.5084V28.7415H86.4445C86.3415 28.9475 86.187 29.1499 85.9811 29.3487C85.7751 29.5476 85.5106 29.7127 85.1874 29.8441C84.8642 29.9755 84.4772 30.0412 84.0262 30.0412ZM84.3724 28.7628C84.8128 28.7628 85.1892 28.6758 85.5017 28.5018C85.8177 28.3278 86.0574 28.1005 86.2208 27.82C86.3877 27.5359 86.4711 27.2323 86.4711 26.9091V25.8544C86.4143 25.9112 86.3042 25.9645 86.1409 26.0142C85.9811 26.0604 85.7982 26.1012 85.5922 26.1367C85.3863 26.1687 85.1856 26.1989 84.9903 26.2273C84.795 26.2522 84.6316 26.2735 84.5003 26.2912C84.1913 26.3303 83.909 26.396 83.6533 26.4883C83.4012 26.5806 83.1988 26.7138 83.0461 26.8878C82.8969 27.0583 82.8223 27.2855 82.8223 27.5696C82.8223 27.9638 82.9679 28.2621 83.2591 28.4645C83.5503 28.6634 83.9214 28.7628 84.3724 28.7628ZM90.1852 29.8601V21.6783H91.7246V22.978H91.8098C91.959 22.5377 92.2218 22.1914 92.5982 21.9393C92.9781 21.6836 93.4078 21.5558 93.8872 21.5558C93.9867 21.5558 94.1039 21.5593 94.2388 21.5664C94.3773 21.5735 94.4856 21.5824 94.5637 21.5931V23.1165C94.4998 23.0987 94.3862 23.0792 94.2228 23.0579C94.0595 23.033 93.8961 23.0206 93.7328 23.0206C93.3563 23.0206 93.0208 23.1005 92.726 23.2603C92.4348 23.4166 92.204 23.635 92.0335 23.9155C91.8631 24.1925 91.7779 24.5085 91.7779 24.8637V29.8601H90.1852ZM99.0954 30.0252C98.3035 30.0252 97.6217 29.8459 97.05 29.4872C96.4818 29.125 96.045 28.6261 95.7396 27.9904C95.4342 27.3548 95.2815 26.6268 95.2815 25.8065C95.2815 24.9755 95.4378 24.2422 95.7503 23.6066C96.0628 22.9674 96.5031 22.4684 97.0713 22.1098C97.6395 21.7511 98.3088 21.5718 99.0794 21.5718C99.7009 21.5718 100.255 21.6872 100.741 21.918C101.228 22.1453 101.62 22.4649 101.919 22.8768C102.22 23.2887 102.4 23.7699 102.457 24.3203H100.907C100.821 23.9368 100.626 23.6066 100.321 23.3296C100.019 23.0526 99.6139 22.9141 99.1061 22.9141C98.6622 22.9141 98.2733 23.0313 97.9395 23.2656C97.6093 23.4965 97.3518 23.8267 97.1672 24.2564C96.9825 24.6826 96.8902 25.1868 96.8902 25.7692C96.8902 26.3658 96.9807 26.8807 97.1618 27.3139C97.3429 27.7472 97.5986 28.0828 97.9289 28.3207C98.2627 28.5586 98.6551 28.6776 99.1061 28.6776C99.4079 28.6776 99.6814 28.6225 99.9264 28.5125C100.175 28.3988 100.383 28.2372 100.55 28.0277C100.72 27.8182 100.839 27.5661 100.907 27.2713H102.457C102.4 27.8004 102.228 28.2727 101.94 28.6882C101.652 29.1037 101.267 29.4304 100.784 29.6683C100.305 29.9063 99.7417 30.0252 99.0954 30.0252ZM105.752 25.0022V29.8601H104.16V18.951H105.731V23.01H105.832C106.024 22.5696 106.317 22.2198 106.711 21.9606C107.105 21.7014 107.62 21.5718 108.256 21.5718C108.817 21.5718 109.307 21.6872 109.726 21.918C110.149 22.1488 110.475 22.4933 110.706 22.9514C110.941 23.4059 111.058 23.9741 111.058 24.6559V29.8601H109.465V24.8477C109.465 24.2475 109.311 23.7823 109.002 23.4521C108.693 23.1183 108.263 22.9514 107.713 22.9514C107.336 22.9514 106.999 23.0313 106.701 23.1911C106.406 23.3509 106.173 23.5852 106.003 23.8942C105.836 24.1996 105.752 24.5689 105.752 25.0022Z" fill="white"/>
<defs>
<linearGradient id="paint0_linear_76_14096" x1="1.78569e-06" y1="4.99999" x2="142" y2="50" gradientUnits="userSpaceOnUse">
<stop stop-color="#3023B2"/>
<stop offset="1" stop-color="#7F56D9"/>
</linearGradient>
<clipPath id="clip0_76_14096">
<rect width="20" height="20" fill="white" transform="matrix(1 0 0 -1 30 33.27)"/>
</clipPath>
</defs>
</svg>
