<svg width="31" height="26" viewBox="0 0 31 26" fill="none" xmlns="http://www.w3.org/2000/svg">
<path fill-rule="evenodd" clip-rule="evenodd" d="M15.382 0.151367C7.18126 0.151367 0.539062 5.99493 0.539062 13.2096C0.539062 18.9879 4.78784 23.8684 10.6879 25.5986C11.43 25.7129 11.7083 25.3211 11.7083 24.9783C11.7083 24.6682 11.6898 23.6399 11.6898 22.5462C7.96051 23.1502 6.99572 21.7464 6.69886 21.0119C6.53188 20.6365 5.80829 19.4776 5.17747 19.1674C4.65797 18.9226 3.91582 18.3186 5.15891 18.3023C6.32779 18.286 7.1627 19.249 7.44101 19.6408C8.77687 21.6158 10.9105 21.0609 11.764 20.7181C11.8939 19.8693 12.2835 19.298 12.7102 18.9715C9.40769 18.6451 5.95672 17.5188 5.95672 12.524C5.95672 11.104 6.53188 9.92872 7.47812 9.01464C7.32969 8.68819 6.81018 7.34972 7.62654 5.55421C7.62654 5.55421 8.86964 5.21143 11.7083 6.89268C12.8958 6.59887 14.1574 6.45197 15.4191 6.45197C16.6807 6.45197 17.9424 6.59887 19.1298 6.89268C21.9685 5.19511 23.2116 5.55421 23.2116 5.55421C24.0279 7.34972 23.5084 8.68819 23.36 9.01464C24.3062 9.92872 24.8814 11.0876 24.8814 12.524C24.8814 17.5351 21.4119 18.6451 18.1093 18.9715C18.6474 19.3796 19.1112 20.1631 19.1112 21.3873C19.1112 23.1339 19.0927 24.5376 19.0927 24.9783C19.0927 25.3211 19.371 25.7292 20.1131 25.5986C23.0597 24.7234 25.6201 23.0573 27.434 20.8349C29.2479 18.6125 30.224 15.9456 30.2248 13.2096C30.2248 5.99493 23.5827 0.151367 15.382 0.151367Z" fill="black"/>
</svg>
