<svg width="31" height="27" viewBox="0 0 31 27" fill="none" xmlns="http://www.w3.org/2000/svg">
<path d="M29.9522 10.7403H28.7567V10.6862H15.3983V15.9094H23.7866C22.5628 18.9499 19.2745 21.1326 15.3983 21.1326C10.4802 21.1326 6.49272 17.6245 6.49272 13.2978C6.49272 8.97099 10.4802 5.46295 15.3983 5.46295C17.6685 5.46295 19.7338 6.2164 21.3064 7.44712L25.5047 3.75366C22.8538 1.58015 19.3079 0.239746 15.3983 0.239746C7.20145 0.239746 0.555664 6.08647 0.555664 13.2978C0.555664 20.509 7.20145 26.3558 15.3983 26.3558C23.5951 26.3558 30.2409 20.509 30.2409 13.2978C30.2409 12.4222 30.1385 11.5676 29.9522 10.7403Z" fill="#FFC107"/>
<path d="M2.26562 7.21991L7.14217 10.3662C8.46168 7.49217 11.6573 5.46295 15.3969 5.46295C17.6671 5.46295 19.7324 6.2164 21.305 7.44711L25.5033 3.75366C22.8524 1.58015 19.3065 0.239746 15.3969 0.239746C9.69585 0.239746 4.75177 3.07138 2.26562 7.21991Z" fill="#FF3D00"/>
<path d="M15.3982 26.3562C19.2321 26.3562 22.7156 25.0654 25.3495 22.9664L20.7557 19.5465C19.2154 20.577 17.3333 21.1344 15.3982 21.133C11.5377 21.133 8.25966 18.9673 7.02475 15.9451L2.18457 19.2259C4.64103 23.4547 9.62964 26.3562 15.3982 26.3562Z" fill="#4CAF50"/>
<path d="M29.9524 10.7402H28.7568V10.686H15.3984V15.9092H23.7868C23.2014 17.3563 22.1469 18.6209 20.7537 19.5465L20.7559 19.5452L25.3497 22.9651C25.0246 23.225 30.2411 19.8266 30.2411 13.2976C30.2411 12.4221 30.1387 11.5675 29.9524 10.7402Z" fill="#1976D2"/>
</svg>
