<svg width="55" height="60" viewBox="0 0 55 60" fill="none" xmlns="http://www.w3.org/2000/svg">
<g clip-path="url(#clip0_45_611)">
<path d="M18.8662 48.1939C19.9887 48.785 21.382 48.3572 21.9743 47.2368C22.5666 46.1164 22.1379 44.7286 21.0154 44.1346C20.0931 43.6476 18.9959 43.8587 18.3021 44.5681L20.1749 45.7251C20.4174 45.8518 20.5105 46.153 20.3807 46.3979C20.251 46.6428 19.9492 46.7329 19.7067 46.6062L17.6957 45.7138C17.501 46.6822 17.9439 47.7069 18.8662 48.1939Z" fill="#2AAA94"/>
<path d="M20.2167 46.3108C20.2957 46.1588 20.2392 45.973 20.0869 45.8942C19.9346 45.8126 19.7485 45.8717 19.6695 46.0237C19.5905 46.1757 19.6469 46.3615 19.7993 46.4403C19.9487 46.5191 20.1349 46.46 20.2167 46.3108Z" fill="#2AAA94"/>
<path d="M24.4648 31.3345H1.33691C0.600761 31.3345 0 31.9369 0 32.6716V44.3062C0 45.041 0.521788 45.9418 1.15922 46.3105L18.1977 56.1294L24.6481 59.8453C25.2856 60.2141 25.8074 59.9129 25.8074 59.1781V45.1113V32.6773C25.8045 31.9369 25.2038 31.3345 24.4648 31.3345ZM23.4241 46.4344L23.0546 46.5217C23.0292 46.7469 22.9784 46.9721 22.9023 47.1917L23.1956 47.4309C23.252 47.4788 23.2718 47.5689 23.2351 47.6336L23.0094 48.0587C22.9756 48.1234 22.891 48.16 22.8205 48.1375L22.4566 48.0305C22.3184 48.2163 22.1605 48.3852 21.9884 48.5344L22.1238 48.8891C22.1492 48.9567 22.121 49.044 22.0589 49.0834L21.6528 49.3367C21.5907 49.3761 21.5005 49.3649 21.4497 49.3114L21.1874 49.0355C20.9759 49.1256 20.7559 49.196 20.5302 49.2382L20.4682 49.6126C20.4569 49.6858 20.3892 49.7477 20.3131 49.7505L19.8336 49.7674C19.7603 49.7702 19.6869 49.7139 19.67 49.6407L19.5797 49.2748C19.3541 49.2495 19.1285 49.1988 18.9085 49.1228L18.6687 49.4155C18.6236 49.4718 18.5305 49.4916 18.4657 49.4578L18.0398 49.2326C17.9749 49.1988 17.9411 49.1115 17.9608 49.044L18.068 48.6808C17.8818 48.5429 17.7126 48.3852 17.5631 48.2135L17.2077 48.3486C17.14 48.3768 17.0498 48.3458 17.0131 48.2839L16.7593 47.8785C16.7198 47.8166 16.7311 47.7237 16.7847 47.6758L17.0582 47.4169C16.968 47.2057 16.9003 46.9862 16.8552 46.761L16.48 46.7018C16.4067 46.6906 16.3447 46.6202 16.3447 46.547L16.3249 46.0684C16.3221 45.9953 16.3785 45.9221 16.449 45.9052L16.8185 45.8179C16.8354 45.6687 16.8664 45.5223 16.9059 45.3759L14.4944 44.3062C14.2349 44.6553 13.9416 44.9678 13.6201 45.2436L13.8711 45.9024C13.9191 46.0319 13.8655 46.1951 13.7498 46.2655L12.9911 46.7412C12.8755 46.8144 12.7034 46.7919 12.6104 46.6934L12.1224 46.1782C11.7304 46.3471 11.3186 46.4738 10.8983 46.5555L10.7855 47.2536C10.7629 47.3887 10.6332 47.5041 10.4978 47.5069L9.60372 47.5407C9.46552 47.5464 9.32732 47.4394 9.29629 47.3071L9.1327 46.6202C8.71245 46.5723 8.2922 46.4795 7.88041 46.3359L7.43478 46.8848C7.34734 46.989 7.17811 47.0256 7.05683 46.9608L6.26428 46.5442C6.143 46.4794 6.07531 46.3218 6.11479 46.1895L6.31505 45.5111C5.96531 45.2521 5.65224 44.9593 5.37301 44.6384L4.71302 44.8889C4.58609 44.9368 4.41969 44.8833 4.34917 44.7679L3.87251 44.0106C3.79918 43.8952 3.82175 43.7235 3.92046 43.6306L4.43661 43.1436C4.26738 42.7495 4.14046 42.3413 4.05867 41.9191L3.35919 41.8065C3.2238 41.7839 3.10817 41.6545 3.10534 41.5193L3.0715 40.627C3.06586 40.489 3.17022 40.3511 3.30278 40.3201L3.99097 40.1568C4.03892 39.7374 4.132 39.318 4.27584 38.907L3.72867 38.4622C3.62149 38.3749 3.58765 38.206 3.65252 38.0878L4.06995 37.2968C4.132 37.1757 4.29277 37.1081 4.42533 37.1476L5.10224 37.3474C5.36173 36.9984 5.65506 36.6859 5.97659 36.4072L5.72557 35.7457C5.67762 35.619 5.73121 35.4529 5.84685 35.3825L6.60556 34.9068C6.7212 34.8364 6.89324 34.8561 6.98632 34.9546L7.47426 35.467C7.86631 35.2981 8.2781 35.1714 8.70117 35.0898L8.81399 34.3916C8.83655 34.2565 8.9663 34.1439 9.10168 34.1383L9.99577 34.1045C10.134 34.0989 10.2694 34.203 10.3004 34.3381L10.4668 35.025C10.887 35.0729 11.3073 35.1658 11.7191 35.3093L12.1647 34.7632C12.2522 34.659 12.4214 34.6225 12.5427 34.6872L13.3352 35.1038C13.4565 35.1686 13.5242 35.3262 13.4847 35.4585L13.2816 36.1341C13.6314 36.3931 13.9444 36.6859 14.2237 37.0068L14.8837 36.7563C14.9626 36.7253 15.0501 36.745 15.1262 36.7844C15.1742 36.8097 15.2193 36.8323 15.2475 36.8773L15.7242 37.6346C15.7975 37.75 15.7749 37.9217 15.6762 38.0146L15.1601 38.5016C15.3321 38.8957 15.459 39.3039 15.538 39.7233L16.2375 39.8359C16.3729 39.8584 16.4857 39.9879 16.4913 40.1231L16.5252 41.0154C16.5308 41.1506 16.4265 41.2913 16.2911 41.3223L15.6029 41.4855C15.5549 41.905 15.4619 42.3216 15.318 42.7326L17.5744 44.1261C17.6731 44.0135 17.769 43.8952 17.879 43.7995L17.7436 43.4448C17.7182 43.3773 17.7464 43.29 17.8085 43.2506L18.2146 42.9944C18.2767 42.955 18.3698 42.9663 18.4205 43.0198L18.6828 43.2928C18.8944 43.2027 19.1144 43.1352 19.34 43.0929L19.4021 42.7185C19.4133 42.6453 19.4839 42.5862 19.5544 42.5806L20.0338 42.5637C20.1072 42.5609 20.1805 42.6172 20.1974 42.6876L20.2849 43.0535C20.5105 43.0789 20.7361 43.1295 20.9561 43.2055L21.1959 42.9128C21.2438 42.8565 21.3341 42.8368 21.399 42.8734L21.822 43.0958C21.8869 43.1295 21.9236 43.2168 21.901 43.2844L21.7938 43.6475C21.98 43.7854 22.1492 43.9431 22.2959 44.1148L22.6512 43.9797C22.7189 43.9543 22.8092 43.9825 22.8459 44.0444L23.0997 44.4498C23.1392 44.5117 23.1279 44.6046 23.0743 44.6553L22.7979 44.9143C22.891 45.1254 22.9587 45.345 23.001 45.5702L23.3761 45.6293C23.4466 45.6406 23.5087 45.7109 23.5115 45.7841L23.5312 46.2627C23.551 46.3415 23.4946 46.4175 23.4241 46.4344Z" fill="#2AAA94"/>
<path d="M24.6453 0.15805L1.15922 13.69C0.521788 14.0588 0 14.9596 0 15.6943V27.3289C0 28.0637 0.603582 28.6633 1.33691 28.6633H9.54449H24.4676C25.2038 28.6633 25.8074 28.0608 25.8074 27.3289V25.1754V0.825217C25.8045 0.0904891 25.2828 -0.210721 24.6453 0.15805ZM17.8311 25.8172H8.12861C6.83119 25.8172 5.65506 25.3049 4.78353 24.4773H9.93936C10.1171 24.7109 10.385 24.8686 10.6896 24.9052C10.7347 24.9108 10.7799 24.9221 10.825 24.9221C10.9406 24.9221 11.0478 24.8995 11.1522 24.8686C11.6063 24.7278 11.9391 24.3112 11.9391 23.8101C11.9391 23.1964 11.4399 22.6982 10.825 22.6982C10.4611 22.6982 10.1424 22.8755 9.93654 23.1429H3.79354C3.46637 22.4898 3.27457 21.7551 3.27457 20.9754C3.27457 20.3223 3.40714 19.7029 3.64124 19.1343H9.93654C10.1396 19.4046 10.4611 19.5791 10.825 19.5791C11.4427 19.5791 11.9391 19.0808 11.9391 18.4671C11.9391 17.8535 11.4399 17.3552 10.825 17.3552C10.4611 17.3552 10.1424 17.5325 9.93654 17.8H4.47046C5.15301 17.0174 6.08095 16.4544 7.13581 16.2348C8.23015 14.1291 10.4358 12.6878 12.977 12.6878C15.0444 12.6878 16.889 13.6421 18.0934 15.1285H13.1603C12.9573 14.8582 12.6357 14.6837 12.2747 14.6837C11.6599 14.6837 11.1606 15.182 11.1606 15.7957C11.1606 16.4093 11.6599 16.9076 12.2747 16.9076C12.6386 16.9076 12.9573 16.7303 13.1603 16.4628H19.5882C21.2466 17.1075 22.4595 18.636 22.6512 20.4686H13.1603C12.9573 20.2012 12.6357 20.0239 12.2747 20.0239C11.6599 20.0239 11.1606 20.5221 11.1606 21.1386C11.1606 21.7523 11.6599 22.2506 12.2747 22.2506C12.6386 22.2506 12.9573 22.0732 13.1603 21.8058H22.6033C22.2084 24.086 20.2256 25.8172 17.8311 25.8172Z" fill="#04016C"/>
<path d="M53.1296 13.69L29.6407 0.15805C29.0032 -0.210721 28.4814 0.0904891 28.4814 0.825217V27.3289C28.4814 28.0637 29.0822 28.6633 29.8212 28.6633H41.7067H52.9491C53.6852 28.6633 54.2888 28.0608 54.2888 27.3289V27.0221V15.6943C54.286 14.9596 53.7642 14.0588 53.1296 13.69ZM45.4043 15.1144L47.6212 13.8364C47.734 13.7716 47.8779 13.8082 47.9427 13.9236C48.0076 14.0363 47.9709 14.1798 47.8581 14.2474L45.6412 15.5254C45.6046 15.5451 45.5651 15.5564 45.5228 15.5564C45.4438 15.5564 45.362 15.5142 45.3197 15.4381C45.252 15.3227 45.2915 15.1792 45.4043 15.1144ZM43.1677 13.0566L44.4482 10.844C44.513 10.7314 44.6569 10.692 44.7697 10.7567C44.8825 10.8215 44.922 10.965 44.8571 11.0776L43.5766 13.2903C43.5343 13.3663 43.4525 13.4085 43.3736 13.4085C43.3341 13.4085 43.2946 13.3972 43.2551 13.3775C43.1423 13.3128 43.1028 13.1692 43.1677 13.0566ZM40.2005 9.83338C40.2005 9.70389 40.3077 9.59692 40.4374 9.59692C40.57 9.59692 40.6744 9.70389 40.6744 9.83338V12.3866C40.6744 12.5161 40.57 12.6231 40.4374 12.6231C40.3077 12.6231 40.2005 12.5161 40.2005 12.3866V9.83338ZM36.1024 10.7567C36.2152 10.692 36.359 10.7286 36.4239 10.844L37.7044 13.0566C37.7693 13.1692 37.7298 13.3128 37.617 13.3775C37.5803 13.4001 37.538 13.4085 37.4985 13.4085C37.4167 13.4085 37.3377 13.3663 37.2926 13.2903L36.0121 11.0776C35.9529 10.9678 35.9924 10.8215 36.1024 10.7567ZM33.0196 14.2446C32.9068 14.1798 32.8673 14.0334 32.9322 13.9208C32.997 13.8082 33.1409 13.7716 33.2537 13.8336L35.4706 15.1116C35.5834 15.1763 35.6229 15.3199 35.558 15.4325C35.5157 15.5085 35.4367 15.5508 35.3521 15.5508C35.3126 15.5508 35.2732 15.5423 35.2337 15.5198L33.0196 14.2446ZM40.5277 27.5654C40.5051 27.5654 40.4854 27.5682 40.4628 27.5682C39.6618 27.5682 38.748 27.191 38.748 26.6252H39.518H42.1749C42.1777 27.1769 41.3118 27.5457 40.5277 27.5654ZM42.7954 26.0087C42.7954 26.1635 42.66 26.293 42.4879 26.293H39.1626H38.3841C38.2149 26.293 38.0767 26.1663 38.0767 26.0087V25.8201C38.0767 25.6737 38.2008 25.5526 38.3588 25.5414C38.3672 25.5414 38.3757 25.5357 38.3841 25.5357H42.4879C42.66 25.5357 42.7954 25.6624 42.7954 25.8201V26.0087ZM44.8571 20.8036C43.6048 23.0557 43.272 22.6025 43.0689 23.827C43.021 24.1029 42.9731 24.3224 42.9054 24.4942C43.0013 24.5448 43.0661 24.6321 43.0661 24.7334V24.9221C43.0661 25.0797 42.9138 25.2064 42.722 25.2064H38.15C38.057 25.2064 37.9723 25.1754 37.9131 25.1247C37.9075 25.1219 37.9075 25.1191 37.9047 25.1163L37.8849 25.0966V25.0938C37.8398 25.0459 37.8088 24.9868 37.8088 24.9221V24.7334C37.8088 24.6321 37.8736 24.5448 37.9695 24.4942C37.9047 24.3224 37.8539 24.1057 37.8059 23.827C37.6 22.6025 37.27 23.0557 36.0178 20.8036C35.5975 20.0464 35.338 19.1878 35.338 18.2616C35.338 15.4494 37.6226 13.172 40.4374 13.172C42.6177 13.172 44.4764 14.5401 45.2041 16.4628C45.4156 17.023 45.5397 17.6283 45.5397 18.2616C45.5369 19.1878 45.2774 20.0492 44.8571 20.8036Z" fill="#2AAA94"/>
<path opacity="0.2" d="M22.6058 21.8085C22.2109 24.0859 20.2253 25.8199 17.8307 25.8199H8.12829C6.83087 25.8199 5.65473 25.3076 4.7832 24.48L9.54417 28.6659H24.4673C25.2035 28.6659 25.807 28.0635 25.807 27.3316V25.1781L22.6086 21.8057L22.6058 21.8085Z" fill="#2AAA94"/>
<path d="M30.5547 39.4785L30.5576 39.4844C30.5576 39.4814 30.5547 39.4814 30.5547 39.4785Z" fill="#2AAA94"/>
<path opacity="0.2" d="M30.5547 39.4785L30.5576 39.4844C30.5576 39.4814 30.5547 39.4814 30.5547 39.4785Z" fill="#2AAA94"/>
<path d="M52.9491 31.3345H29.8212C29.085 31.3345 28.4814 31.9369 28.4814 32.6716V59.1753C28.4814 59.9101 29.0032 60.2113 29.6407 59.8425L35.9839 56.1857L38.9172 54.4967L44.4256 51.3242L53.1296 46.3105C53.2227 46.2571 53.3129 46.1895 53.4004 46.1135C53.908 45.6772 54.286 44.934 54.286 44.3062V42.3892V32.6716C54.286 31.9369 53.6852 31.3345 52.9491 31.3345ZM46.4028 45.649C46.4028 46.699 43.7741 47.5464 40.5277 47.5464C37.2842 47.5464 34.6526 46.6962 34.6526 45.649V41.5982L39.8931 42.9015C40.1018 42.9522 40.3133 42.9803 40.5277 42.9803C40.7421 42.9803 40.9536 42.955 41.1623 42.9015L46.4028 41.5982V45.649ZM50.1117 39.895L49.3135 40.0921V45.2014C49.5109 45.4154 49.635 45.7278 49.635 46.0769C49.635 46.7187 49.2119 47.2423 48.693 47.2423C48.174 47.2423 47.7509 46.7215 47.7509 46.0769C47.7509 45.7278 47.875 45.4125 48.0725 45.2014V40.4018L46.4028 40.8156L41.041 42.1499C40.8718 42.1921 40.7026 42.2146 40.5277 42.2146C40.3557 42.2146 40.1836 42.1921 40.0172 42.1499L34.6526 40.8156L30.9437 39.895C30.8394 39.8697 30.7632 39.8078 30.6955 39.7346C30.6335 39.6642 30.5855 39.5798 30.5573 39.484L30.5545 39.4784C30.4642 39.1434 30.594 38.724 30.9409 38.6367L40.0144 36.3762C40.1836 36.3312 40.3556 36.3115 40.5249 36.3115C40.6969 36.3115 40.869 36.334 41.0382 36.3762L50.1117 38.6367C50.2894 38.6818 50.4022 38.8141 50.4671 38.9745C50.6024 39.3208 50.4868 39.7993 50.1117 39.895Z" fill="#04016C"/>
<path opacity="0.2" d="M50.4667 38.9775C50.6021 39.321 50.4893 39.7995 50.1114 39.8952L49.3132 40.0923V45.2016C49.5106 45.4156 49.6347 45.728 49.6347 46.0771C49.6347 46.7189 49.2116 47.2425 48.6927 47.2425C48.1737 47.2425 47.7506 46.7217 47.7506 46.0771C47.7506 45.728 47.8747 45.4127 48.0721 45.2016V40.402L46.4024 40.8158L41.0407 42.1501C40.8715 42.1923 40.7022 42.2148 40.5274 42.2148C40.3553 42.2148 40.1833 42.1923 40.0169 42.1501L34.6523 40.8158L30.9434 39.8952C30.839 39.8699 30.7629 39.808 30.6952 39.7348L38.9169 54.4969L44.4253 51.3244L53.1293 46.3107C53.2223 46.2573 53.3126 46.1897 53.4 46.1137L50.4724 38.9804H50.4667V38.9775ZM46.4024 45.6492C46.4024 46.6992 43.7737 47.5466 40.5274 47.5466C37.2838 47.5466 34.6523 46.6964 34.6523 45.6492V41.5984L39.8928 42.9017C40.1015 42.9524 40.313 42.9805 40.5274 42.9805C40.7417 42.9805 40.9533 42.9552 41.162 42.9017L46.4024 41.5984V45.6492Z" fill="#2AAA94"/>
<path d="M9.31833 40.5591C9.17449 40.8293 9.27885 41.1643 9.54961 41.3079C9.82038 41.4514 10.156 41.3473 10.2999 41.077C10.4437 40.8068 10.3393 40.4718 10.0686 40.3282C9.79781 40.1847 9.46218 40.2888 9.31833 40.5591Z" fill="#2AAA94"/>
<path d="M13.0305 43.6418L9.21162 41.9471C8.58547 41.6177 8.34855 40.8436 8.67855 40.2215C9.00854 39.5993 9.78135 39.3601 10.4075 39.6894L13.9613 41.8852C14.4492 40.0075 13.6087 37.9751 11.8149 37.032C9.7193 35.9257 7.12164 36.7252 6.0132 38.8168C4.90475 40.9083 5.70576 43.501 7.80138 44.6073C9.5952 45.5504 11.75 45.0999 13.0305 43.6418Z" fill="#2AAA94"/>
<path opacity="0.2" d="M15.1371 36.7787C15.185 36.8041 15.2302 36.8266 15.2584 36.8716L15.735 37.6289C15.8084 37.7443 15.7858 37.916 15.6871 38.0089L15.1709 38.4959C15.343 38.89 15.4699 39.2982 15.5489 39.7176L16.2484 39.8302C16.3837 39.8528 16.4966 39.9822 16.5022 40.1174L16.536 41.0097C16.5417 41.1449 16.4373 41.2856 16.3019 41.3166L15.6137 41.4799C15.5658 41.8993 15.4727 42.3159 15.3289 42.7269L17.5853 44.1204C17.684 44.0078 17.7799 43.8895 17.8899 43.7938L17.7545 43.4391C17.7291 43.3716 17.7573 43.2843 17.8194 43.2449L18.2255 42.9887C18.2876 42.9493 18.3806 42.9606 18.4314 43.0141L18.6937 43.2871C18.9052 43.197 19.1252 43.1295 19.3509 43.0873L19.4129 42.7128C19.4242 42.6397 19.4947 42.5805 19.5652 42.5749L20.0447 42.558C20.118 42.5552 20.1914 42.6115 20.2083 42.6819L20.2957 43.0478C20.5214 43.0732 20.747 43.1238 20.967 43.1999L21.2068 42.9071C21.2547 42.8508 21.345 42.8311 21.4098 42.8677L21.8329 43.0901C21.8978 43.1238 21.9344 43.2111 21.9119 43.2787L21.8047 43.6418C21.9908 43.7798 22.1601 43.9374 22.3067 44.1091L22.6621 43.974C22.7298 43.9487 22.8201 43.9768 22.8567 44.0387L23.1106 44.4441C23.1501 44.506 23.1388 44.5989 23.0852 44.6496L22.8088 44.9086C22.9019 45.1197 22.9696 45.3393 23.0119 45.5645L23.387 45.6236C23.4575 45.6349 23.5195 45.7052 23.5224 45.7784L23.5421 46.257C23.5449 46.3302 23.4885 46.4034 23.418 46.4203L23.0485 46.5075C23.0231 46.7327 22.9724 46.9579 22.8962 47.1775L23.1895 47.4168C23.246 47.4647 23.2657 47.5547 23.229 47.6195L23.0034 48.0446C22.9696 48.1093 22.8849 48.1459 22.8144 48.1234L22.4506 48.0164C22.3124 48.2022 22.1544 48.3711 21.9824 48.5203L22.1178 48.875C22.1432 48.9426 22.1149 49.0298 22.0529 49.0692L21.6467 49.3226C21.5847 49.362 21.4944 49.3507 21.4437 49.2973L21.1814 49.0214C20.9698 49.1115 20.7498 49.1818 20.5242 49.2241L20.4621 49.5985C20.4509 49.6717 20.3832 49.7336 20.307 49.7364L19.8275 49.7533C19.7542 49.7561 19.6809 49.6998 19.664 49.6266L19.5737 49.2607C19.3481 49.2353 19.1224 49.1847 18.9024 49.1086L18.6627 49.4014C18.6176 49.4577 18.5245 49.4774 18.4596 49.4436L18.0337 49.2184C17.9688 49.1847 17.935 49.0974 17.9547 49.0298L18.0619 48.6667C17.8758 48.5287 17.7065 48.3711 17.5571 48.1994L17.2017 48.3345C17.134 48.3627 17.0437 48.3317 17.0071 48.2698L16.7532 47.8644C16.7137 47.8025 16.725 47.7096 16.7786 47.6617L17.0522 47.4027C16.9619 47.1916 16.8942 46.972 16.8491 46.7468L16.474 46.6877C16.4007 46.6764 16.3386 46.6061 16.3386 46.5329L16.3189 46.0543C16.316 45.9811 16.3725 45.9079 16.443 45.891L16.8125 45.8038C16.8294 45.6546 16.8604 45.5082 16.8999 45.3618L14.4884 44.2921C14.2289 44.6412 13.9356 44.9536 13.614 45.2295L13.8651 45.8882C13.913 46.0177 13.8594 46.181 13.7438 46.2514L12.9851 46.7271C12.8694 46.8003 12.6974 46.7778 12.6043 46.6793L12.1164 46.1641C11.7243 46.333 11.3125 46.4597 10.8923 46.5413L10.7795 47.2395C10.7569 47.3746 10.6271 47.49 10.4918 47.4928L9.59767 47.5266C9.45947 47.5322 9.32126 47.4252 9.29024 47.2929L9.12665 46.6061C8.7064 46.5582 8.28615 46.4653 7.87436 46.3217L7.42873 46.8707C7.34129 46.9748 7.17206 47.0114 7.05078 46.9467L18.1804 56.1181L24.6308 59.834C25.2682 60.2028 25.79 59.9016 25.79 59.1668V45.1L15.1258 36.7646L15.1371 36.7787Z" fill="#2AAA94"/>
<path opacity="0.2" d="M45.201 16.4624C45.4125 17.0226 45.5366 17.6278 45.5366 18.2612C45.5366 19.1874 45.2743 20.0488 44.8569 20.8032C43.6046 23.0553 43.2717 22.602 43.0687 23.8266C43.0207 24.1025 42.9728 24.322 42.9051 24.4937C43.001 24.5444 43.0659 24.6317 43.0659 24.733V24.9216C43.0659 25.0793 42.9135 25.206 42.7218 25.206H38.1498C38.0567 25.206 37.9721 25.175 37.9128 25.1243L38.3585 25.5409C38.3669 25.5409 38.3754 25.5353 38.3839 25.5353H42.4877C42.6597 25.5353 42.7951 25.662 42.7951 25.8196V26.0082C42.7951 26.1631 42.6597 26.2926 42.4877 26.2926H39.1623L39.5177 26.6247H42.1746C42.1746 27.1765 41.3087 27.5453 40.5246 27.565L41.7036 28.6628H52.946C53.6821 28.6628 54.2857 28.0604 54.2857 27.3285V27.0217L45.201 16.4624Z" fill="#2AAA94"/>
</g>
<defs>
<clipPath id="clip0_45_611">
<rect width="54.2857" height="60" fill="white"/>
</clipPath>
</defs>
</svg>
