<svg width="107" height="31" viewBox="0 0 107 31" fill="none" xmlns="http://www.w3.org/2000/svg">
<path d="M13.7197 17.2842L20.0918 7.51855C20.7835 7.55924 21.4386 7.61214 22.0571 7.67725C22.6756 7.73421 23.2168 7.79525 23.6807 7.86035C24.2259 7.93359 24.7305 8.00684 25.1943 8.08008V10.8877L22.9238 10.375V22.9727L25.1943 22.46V25.4873C24.3317 25.6582 23.4813 25.7843 22.6431 25.8657C21.8049 25.9471 20.9544 26.0081 20.0918 26.0488V12.6455L13.7197 22.5332L7.25 12.6211V26.0488C6.55827 26.0081 5.90316 25.9593 5.28467 25.9023C4.66618 25.8454 4.125 25.7843 3.66113 25.7192C3.11589 25.646 2.61133 25.5687 2.14746 25.4873V22.46L4.41797 22.9727V10.3506L2.14746 10.8633V8.05566C2.61133 7.98242 3.11589 7.90918 3.66113 7.83594C4.125 7.77083 4.66618 7.7098 5.28467 7.65283C5.90316 7.58773 6.55827 7.53483 7.25 7.49414L13.7197 17.2842ZM32.2012 20.3359C32.2012 20.7917 32.2622 21.1864 32.3843 21.52C32.5063 21.8455 32.6732 22.1263 32.8848 22.3623C33.0964 22.5902 33.3364 22.7773 33.605 22.9238C33.8817 23.0703 34.1706 23.1842 34.4717 23.2656C34.7728 23.3389 35.078 23.3918 35.3872 23.4243C35.6965 23.4487 35.9935 23.4609 36.2783 23.4609C37.3118 23.4609 38.2518 23.3267 39.0981 23.0581C39.9445 22.7896 40.6973 22.46 41.3564 22.0693V12.084L44.5059 12.3281V26.6104C44.5059 27.1882 44.3838 27.7253 44.1396 28.2217C43.8955 28.7181 43.5415 29.1453 43.0776 29.5034C42.6138 29.8696 42.0441 30.1545 41.3687 30.3579C40.6932 30.5614 39.9242 30.6631 39.0615 30.6631V28.5391C39.387 28.5391 39.6882 28.5065 39.9648 28.4414C40.2415 28.3763 40.4816 28.2746 40.6851 28.1362C40.8966 28.006 41.0594 27.8392 41.1733 27.6357C41.2954 27.4404 41.3564 27.2126 41.3564 26.9521V24.3887C40.974 24.6247 40.5833 24.8403 40.1846 25.0356C39.7939 25.231 39.383 25.4019 38.9517 25.5483C38.5203 25.6867 38.0687 25.7965 37.5967 25.8779C37.1247 25.9593 36.6283 26 36.1074 26C34.846 26 33.7677 25.8983 32.8726 25.6948C31.9774 25.4832 31.2409 25.174 30.6631 24.7671C30.0934 24.3521 29.6743 23.8394 29.4058 23.229C29.1372 22.6187 29.0029 21.9066 29.0029 21.0928V12.3281L32.2012 12.084V20.3359Z" fill="#2AAA94"/>
<path d="M56.9326 7.4209C58.1859 7.4209 59.5124 7.46566 60.9121 7.55518C62.32 7.64469 63.7848 7.81966 65.3066 8.08008V11.1807C64.623 10.9854 63.9313 10.8267 63.2314 10.7046C62.5316 10.5744 61.8276 10.4727 61.1196 10.3994C60.4198 10.3262 59.7199 10.2733 59.02 10.2407C58.3201 10.2082 57.6243 10.1878 56.9326 10.1797C56.599 10.1797 56.2287 10.1878 55.8218 10.2041C55.423 10.2122 54.9958 10.2285 54.54 10.2529C54.0924 10.2773 53.6204 10.314 53.124 10.3628C52.6276 10.4116 52.123 10.4727 51.6104 10.5459V14.9893H62.2793V17.9922H51.6104V22.8994C52.3997 23.0133 53.2217 23.0988 54.0762 23.1558C54.9307 23.2127 55.8828 23.2412 56.9326 23.2412C58.3486 23.2412 59.7565 23.172 61.1562 23.0337C62.556 22.8953 63.9395 22.6309 65.3066 22.2402V25.3408C63.7848 25.6012 62.3241 25.7762 60.9243 25.8657C59.5246 25.9552 58.2103 26 56.9814 26C55.7282 26 54.3976 25.9552 52.9897 25.8657C51.59 25.7762 50.1211 25.6012 48.583 25.3408V8.08008C50.1211 7.81966 51.59 7.64469 52.9897 7.55518C54.3895 7.46566 55.7038 7.4209 56.9326 7.4209ZM76.3906 12.084C77.1068 12.084 77.8555 12.1654 78.6367 12.3281C79.4261 12.4909 80.1911 12.7025 80.9316 12.9629V7.4209H84.1299V25.0479C83.6986 25.1781 83.1818 25.3001 82.5796 25.4141C81.9855 25.528 81.3467 25.6297 80.6631 25.7192C79.9795 25.8006 79.2674 25.8698 78.5269 25.9268C77.7944 25.9756 77.0824 26 76.3906 26C75.1374 26 74.0184 25.9146 73.0337 25.7437C72.049 25.5646 71.2148 25.292 70.5312 24.9258C69.8477 24.5596 69.3268 24.0957 68.9688 23.5342C68.6107 22.9727 68.4316 22.3053 68.4316 21.5322V16.5518C68.4316 15.7786 68.6107 15.1113 68.9688 14.5498C69.3268 13.9883 69.8477 13.5244 70.5312 13.1582C71.2148 12.792 72.049 12.5234 73.0337 12.3525C74.0184 12.1735 75.1374 12.084 76.3906 12.084ZM77.2695 23.7295C77.5951 23.7295 77.9246 23.7132 78.2583 23.6807C78.6001 23.6481 78.9297 23.6034 79.2471 23.5464C79.5726 23.4894 79.8778 23.4243 80.1626 23.3511C80.4556 23.2778 80.7119 23.2005 80.9316 23.1191V15.4531C80.3701 15.1846 79.7923 14.9648 79.1982 14.7939C78.6123 14.6149 77.9694 14.5254 77.2695 14.5254C76.765 14.5254 76.2726 14.5376 75.7925 14.562C75.3205 14.5783 74.877 14.623 74.4619 14.6963C74.0469 14.7614 73.6644 14.859 73.3145 14.9893C72.9645 15.1113 72.6634 15.2782 72.4111 15.4897C72.167 15.7013 71.9757 15.9618 71.8374 16.271C71.6991 16.5802 71.6299 16.9505 71.6299 17.3818V20.9707C71.6299 21.6299 71.7804 22.1466 72.0815 22.521C72.3908 22.8872 72.8018 23.1598 73.3145 23.3389C73.8271 23.5179 74.4253 23.6278 75.1089 23.6685C75.7925 23.7091 76.5127 23.7295 77.2695 23.7295ZM90.9414 21.5811C90.9414 21.9554 91.0757 22.2687 91.3442 22.521C91.6209 22.7733 91.9871 22.9808 92.4429 23.1436C92.9067 23.2982 93.4398 23.4121 94.042 23.4854C94.6442 23.5505 95.2708 23.583 95.9219 23.583C96.6055 23.583 97.2484 23.5464 97.8506 23.4731C98.4528 23.3918 98.9777 23.2738 99.4253 23.1191C99.8729 22.9564 100.227 22.7489 100.487 22.4966C100.748 22.2443 100.878 21.9391 100.878 21.5811V12.084L104.125 12.3281V22.3623C104.125 22.8018 104.015 23.2046 103.795 23.5708C103.584 23.937 103.287 24.2666 102.904 24.5596C102.522 24.8444 102.07 25.0926 101.549 25.3042C101.028 25.5158 100.463 25.6908 99.8525 25.8291C99.2503 25.9674 98.6115 26.0692 97.936 26.1343C97.2687 26.2075 96.5973 26.2441 95.9219 26.2441C95.2383 26.2441 94.5628 26.2075 93.8955 26.1343C93.2282 26.0692 92.5894 25.9674 91.979 25.8291C91.3768 25.6908 90.8153 25.5158 90.2944 25.3042C89.7736 25.0926 89.3219 24.8444 88.9395 24.5596C88.557 24.2666 88.2559 23.9411 88.0361 23.583C87.8245 23.2168 87.7188 22.8099 87.7188 22.3623V12.3281L90.9414 12.084V21.5811Z" fill="#04016C"/>
</svg>
