<?xml version="1.0" encoding="iso-8859-1"?>
<!-- Uploaded to: SVG Repo, www.svgrepo.com, Generator: SVG Repo Mixer Tools -->
<svg fill="#000000" height="800px" width="800px" version="1.1" id="Layer_1" xmlns="http://www.w3.org/2000/svg" xmlns:xlink="http://www.w3.org/1999/xlink" 
	 viewBox="0 0 512 512" xml:space="preserve">
<g>
	<g>
		<path d="M442.182,93.091h-69.818c-6.982,0-11.636,4.655-11.636,11.636s4.655,11.636,11.636,11.636h69.818
			c6.982,0,11.636,4.655,11.636,11.636v349.091c0,6.982-4.655,11.636-11.636,11.636h-93.091c-6.982,0-11.636-4.655-11.636-11.636
			V162.909h81.455c6.982,0,11.636-4.655,11.636-11.636c0-6.982-4.655-11.636-11.636-11.636h-81.455V128V34.909
			C337.455,15.127,322.327,0,302.545,0h-93.091c-19.782,0-34.909,15.127-34.909,34.909v151.273v11.636H93.091
			c-6.982,0-11.636,4.655-11.636,11.636c0,6.982,4.655,11.636,11.636,11.636h81.455v256c0,6.982-4.655,11.636-11.636,11.636H69.818
			c-6.982,0-11.636-4.655-11.636-11.636V186.182c0-6.982,4.655-11.636,11.636-11.636h69.818c6.982,0,11.636-4.655,11.636-11.636
			c0-6.982-4.655-11.636-11.636-11.636H69.818c-19.782,0-34.909,15.127-34.909,34.909v290.909c0,19.782,15.127,34.909,34.909,34.909
			h93.091c9.309,0,17.455-3.491,23.273-9.309C192,508.509,200.145,512,209.455,512h93.091c9.309,0,17.455-3.491,23.273-9.309
			c5.818,5.818,13.964,9.309,23.273,9.309h93.091c19.782,0,34.909-15.127,34.909-34.909V128
			C477.091,108.218,461.964,93.091,442.182,93.091z M314.182,128v349.091c0,6.982-4.655,11.636-11.636,11.636h-93.091
			c-6.982,0-11.636-4.655-11.636-11.636V186.182V34.909c0-6.982,4.655-11.636,11.636-11.636h93.091
			c6.982,0,11.636,4.655,11.636,11.636V128z"/>
	</g>
</g>
<g>
	<g>
		<path d="M418.909,442.182h-46.545c-6.982,0-11.636,4.655-11.636,11.636s4.655,11.636,11.636,11.636h46.545
			c6.982,0,11.636-4.655,11.636-11.636S425.891,442.182,418.909,442.182z"/>
	</g>
</g>
<g>
	<g>
		<path d="M267.636,442.182h-23.273c-6.982,0-11.636,4.655-11.636,11.636s4.655,11.636,11.636,11.636h23.273
			c6.982,0,11.636-4.655,11.636-11.636S274.618,442.182,267.636,442.182z"/>
	</g>
</g>
<g>
	<g>
		<path d="M139.636,442.182H93.091c-6.982,0-11.636,4.655-11.636,11.636s4.655,11.636,11.636,11.636h46.545
			c6.982,0,11.636-4.655,11.636-11.636S146.618,442.182,139.636,442.182z"/>
	</g>
</g>
<g>
	<g>
		<path d="M139.636,407.273H93.091c-6.982,0-11.636,4.655-11.636,11.636s4.655,11.636,11.636,11.636h46.545
			c6.982,0,11.636-4.655,11.636-11.636S146.618,407.273,139.636,407.273z"/>
	</g>
</g>
<g>
	<g>
		<path d="M139.636,372.364H93.091c-6.982,0-11.636,4.655-11.636,11.636s4.655,11.636,11.636,11.636h46.545
			c6.982,0,11.636-4.655,11.636-11.636S146.618,372.364,139.636,372.364z"/>
	</g>
</g>
<g>
	<g>
		<path d="M139.636,337.455H93.091c-6.982,0-11.636,4.655-11.636,11.636c0,6.982,4.655,11.636,11.636,11.636h46.545
			c6.982,0,11.636-4.655,11.636-11.636C151.273,342.109,146.618,337.455,139.636,337.455z"/>
	</g>
</g>
<g>
	<g>
		<path d="M279.273,69.818h-46.545c-6.982,0-11.636,4.655-11.636,11.636v162.909c0,6.982,4.655,11.636,11.636,11.636h46.545
			c6.982,0,11.636-4.655,11.636-11.636V81.455C290.909,74.473,286.255,69.818,279.273,69.818z M267.636,232.727h-23.273V93.091
			h23.273V232.727z"/>
	</g>
</g>
<g>
	<g>
		<path d="M372.364,221.091c-6.982,0-11.636,4.655-11.636,11.636v139.636c0,6.982,4.655,11.636,11.636,11.636
			S384,379.345,384,372.364V232.727C384,225.745,379.345,221.091,372.364,221.091z"/>
	</g>
</g>
<g>
	<g>
		<path d="M418.909,290.909c-6.982,0-11.636,4.655-11.636,11.636v69.818c0,6.982,4.655,11.636,11.636,11.636
			s11.636-4.655,11.636-11.636v-69.818C430.545,295.564,425.891,290.909,418.909,290.909z"/>
	</g>
</g>
<g>
	<g>
		<path d="M256,302.545c-6.982,0-11.636,4.655-11.636,11.636V384c0,6.982,4.655,11.636,11.636,11.636s11.636-4.655,11.636-11.636
			v-69.818C267.636,307.2,262.982,302.545,256,302.545z"/>
	</g>
</g>
</svg>