<svg width="25" height="26" viewBox="0 0 25 26" fill="none" xmlns="http://www.w3.org/2000/svg">
<g clip-path="url(#clip0_45_647)">
<path d="M11.0107 0.5C9.49707 0.5 8.07292 0.78483 6.73828 1.35449C5.38737 1.94043 4.21549 2.72982 3.22266 3.72266C2.22982 4.71549 1.44043 5.88737 0.854492 7.23828C0.284831 8.57292 0 9.99707 0 11.5107C0 13.0244 0.284831 14.4486 0.854492 15.7832C1.44043 17.1178 2.22982 18.2856 3.22266 19.2866C4.21549 20.2876 5.38737 21.0729 6.73828 21.6426C8.07292 22.2285 9.49707 22.5215 11.0107 22.5215C12.5244 22.5215 13.9486 22.2285 15.2832 21.6426C16.6178 21.0729 17.7856 20.2876 18.7866 19.2866C19.7876 18.2856 20.5729 17.1178 21.1426 15.7832C21.7285 14.4486 22.0215 13.0244 22.0215 11.5107C22.0215 9.99707 21.7285 8.57292 21.1426 7.23828C20.5729 5.88737 19.7876 4.71549 18.7866 3.72266C17.7856 2.72982 16.6178 1.94043 15.2832 1.35449C13.9486 0.78483 12.5244 0.5 11.0107 0.5ZM11.0107 20.4951C9.77376 20.4951 8.61003 20.2591 7.51953 19.7871C6.42904 19.3151 5.47689 18.6722 4.66309 17.8584C3.84928 17.0446 3.20638 16.0924 2.73438 15.002C2.26237 13.9115 2.02637 12.7477 2.02637 11.5107C2.02637 10.2738 2.26237 9.11003 2.73438 8.01953C3.20638 6.92904 3.84928 5.97689 4.66309 5.16309C5.47689 4.34928 6.42904 3.70638 7.51953 3.23438C8.61003 2.76237 9.77376 2.52637 11.0107 2.52637C12.2477 2.52637 13.4115 2.76237 14.502 3.23438C15.5924 3.70638 16.5446 4.34928 17.3584 5.16309C18.1722 5.97689 18.8151 6.92904 19.2871 8.01953C19.7591 9.11003 19.9951 10.2738 19.9951 11.5107C19.9951 12.7477 19.7591 13.9115 19.2871 15.002C18.8151 16.0924 18.1722 17.0446 17.3584 17.8584C16.5446 18.6722 15.5924 19.3151 14.502 19.7871C13.4115 20.2591 12.2477 20.4951 11.0107 20.4951ZM24.707 23.7666L18.8721 17.9316C18.6768 17.7363 18.4367 17.6387 18.1519 17.6387C17.867 17.6387 17.627 17.7363 17.4316 17.9316C17.2363 18.127 17.1387 18.367 17.1387 18.6519C17.1387 18.9367 17.2363 19.1768 17.4316 19.3721L23.2666 25.207C23.3643 25.3047 23.4741 25.3779 23.5962 25.4268C23.7183 25.4756 23.8444 25.5 23.9746 25.5C24.1048 25.5 24.235 25.4756 24.3652 25.4268C24.4954 25.3779 24.6094 25.3047 24.707 25.207C24.9023 25.0117 25 24.7716 25 24.4868C25 24.202 24.9023 23.9619 24.707 23.7666Z" fill="#1B2336"/>
</g>
<defs>
<clipPath id="clip0_45_647">
<rect width="25" height="25" fill="white" transform="matrix(1 0 0 -1 0 25.5)"/>
</clipPath>
</defs>
</svg>
