<svg width="313" height="335" viewBox="0 0 313 335" fill="none" xmlns="http://www.w3.org/2000/svg">
<path opacity="0.3" d="M45.5 150.759C45.5 89.4554 95.1964 39.759 156.5 39.7591C217.804 39.7591 267.5 89.4555 267.5 150.759L267.5 333.5L45.4999 333.5L45.5 150.759Z" stroke="white" stroke-width="3"/>
<path opacity="0.3" d="M1.49997 156.5C1.49999 70.8959 70.8959 1.50001 156.5 1.50003C242.104 1.50004 311.5 70.8959 311.5 156.5L311.5 333.5L1.49994 333.5L1.49997 156.5Z" stroke="white" stroke-width="3"/>
<path opacity="0.3" d="M22.5 155.096C22.5 81.0899 82.4939 21.0962 156.5 21.0962C230.506 21.0962 290.5 81.0901 290.5 155.096L290.5 333.5L22.4999 333.5L22.5 155.096Z" stroke="white" stroke-width="3"/>
</svg>
